<?xml version="1.0" encoding="UTF-8"?><svg id="b" xmlns="http://www.w3.org/2000/svg" viewBox="0 0 21.9 15.9"><g id="c"><path d="M21.7,.3h0s0,0,0,0c-.2-.2-.4-.3-.7-.3H1C.8,0,.5,0,.3,.3c0,0,0,0,0,0h0c-.2,.2-.3,.5-.3,.7V14.9c0,.3,.1,.5,.3,.7,0,0,.1,0,.2,.1,.2,.1,.4,.2,.6,.2H20.9c.2,0,.4,0,.6-.2,0,0,.1,0,.2-.1,.2-.2,.3-.5,.3-.7V1c0-.3-.1-.5-.3-.7ZM8.9,7.9L1.1,14.2V1.7l7.8,6.1Zm.9,.7l1.1,.9c0,0,.2,.1,.3,.1s.2,0,.3-.1l1-.8,7.4,6.2H2.1l7.7-6.2Zm3.6-.7L20.9,1.7V14.1l-7.5-6.3ZM19.9,1.1l-3,2.5-5.7,4.7L2.1,1.1H19.9Z" style="fill:#fff;"/></g></svg>